<svg width="909" height="180" viewBox="0 0 909 180" fill="none" xmlns="http://www.w3.org/2000/svg">
<path d="M844.821 179C880.128 179 908.75 150.715 908.75 115.823C908.75 88.1698 890.772 64.6664 865.735 56.1051C862.178 24.5421 835.09 0 802.202 0C766.896 0 738.274 28.285 738.274 63.1765C738.274 70.8941 739.674 78.2879 742.237 85.1246C739.231 84.5406 736.125 84.2352 732.946 84.2352C706.466 84.2352 685 105.449 685 131.618C685 157.786 706.466 179 732.946 179H844.821Z" fill="url(#paint0_linear_121_136)"/>
<path d="M634.299 37.7071C634.69 37.3166 634.69 36.6834 634.299 36.2929L627.935 29.9289C627.545 29.5384 626.911 29.5384 626.521 29.9289C626.13 30.3195 626.13 30.9526 626.521 31.3431L632.178 37L626.521 42.6569C626.13 43.0474 626.13 43.6805 626.521 44.0711C626.911 44.4616 627.545 44.4616 627.935 44.0711L634.299 37.7071ZM392.739 37V38H633.592V37V36H392.739V37Z" fill="#3B82F6"/>
<path d="M392.032 122.293C391.641 122.683 391.641 123.317 392.032 123.707L398.396 130.071C398.786 130.462 399.419 130.462 399.81 130.071C400.2 129.681 400.2 129.047 399.81 128.657L394.153 123L399.81 117.343C400.2 116.953 400.2 116.319 399.81 115.929C399.419 115.538 398.786 115.538 398.396 115.929L392.032 122.293ZM633.592 123V122L392.739 122V123V124L633.592 124V123Z" fill="#3B82F6"/>
<rect x="0.170654" width="340" height="180" rx="12" fill="#1C1D3D"/>
<rect x="0.670654" y="0.5" width="339" height="179" rx="11.5" stroke="#64628E" stroke-opacity="0.5"/>
<path d="M34.244 21.6843V32.9137H32.7209V23.2129L29.8562 24.8255L29.1945 23.8177L32.9113 21.6843H34.244ZM36.8548 32.099V33.2497H29.6477V32.099H36.8548ZM32.3583 46.2495C33.144 46.2495 33.8149 46.3896 34.3709 46.6695C34.9329 46.9495 35.3651 47.333 35.6672 47.8201C35.9694 48.3073 36.1205 48.8588 36.1205 49.4748C36.1205 50.0067 36.0208 50.5274 35.8214 51.037C35.6219 51.5408 35.3016 52.0729 34.8604 52.6328C34.4253 53.1871 33.8511 53.803 33.138 54.4805C32.4309 55.1581 31.5606 55.9307 30.5271 56.7986H36.4106L36.2202 57.9997H28.7956V56.849C29.7384 56.0147 30.5392 55.2841 31.1979 54.6569C31.8628 54.0298 32.4097 53.481 32.8388 53.0107C33.2739 52.5348 33.6124 52.1036 33.8541 51.7172C34.1019 51.3309 34.2742 50.9642 34.3709 50.617C34.4676 50.2642 34.5159 49.9003 34.5159 49.5252C34.5159 48.8756 34.3165 48.3633 33.9176 47.9881C33.5248 47.613 32.9808 47.4254 32.2858 47.4254C31.6694 47.4254 31.1647 47.5234 30.7719 47.7193C30.379 47.9153 29.9862 48.2288 29.5934 48.6601L28.5417 47.9042C29.0373 47.3443 29.5873 46.9299 30.1917 46.661C30.796 46.3868 31.5183 46.2495 32.3583 46.2495ZM32.3402 70.9995C33.1259 70.9995 33.8028 71.1311 34.3709 71.3943C34.945 71.6519 35.3892 72.0018 35.7035 72.4441C36.0178 72.8809 36.1749 73.3625 36.1749 73.8887C36.1749 74.3535 36.0631 74.7763 35.8395 75.1571C35.6159 75.5378 35.3197 75.8513 34.9511 76.0977C34.5824 76.3441 34.1775 76.5065 33.7363 76.5848C34.2258 76.6184 34.6851 76.7473 35.1142 76.9712C35.5434 77.1896 35.8939 77.5031 36.1659 77.9119C36.4378 78.3151 36.5738 78.8161 36.5738 79.4153C36.5738 80.0816 36.3925 80.6835 36.0299 81.221C35.6672 81.7529 35.1596 82.1729 34.5069 82.4809C33.8602 82.7888 33.1047 82.9429 32.2405 82.9429C31.5455 82.9429 30.8504 82.8197 30.1554 82.5733C29.4664 82.3269 28.8832 81.935 28.4058 81.3974L29.4302 80.6247C29.7867 81.0111 30.2098 81.2995 30.6993 81.4898C31.1949 81.6802 31.6965 81.7754 32.2042 81.7754C33.0745 81.7754 33.7544 81.5654 34.244 81.1454C34.7335 80.72 34.9783 80.1432 34.9783 79.4153C34.9783 78.8665 34.8634 78.4326 34.6338 78.1135C34.4102 77.7943 34.105 77.5675 33.7182 77.4332C33.3314 77.2931 32.8902 77.2231 32.3946 77.2231H31.343L31.5334 76.1061H32.2677C32.6726 76.1061 33.0533 76.0361 33.4099 75.8961C33.7726 75.7505 34.0687 75.5266 34.2984 75.2242C34.528 74.9218 34.6428 74.5439 34.6428 74.0903C34.6428 73.452 34.4132 72.9649 33.9539 72.629C33.4945 72.2929 32.9385 72.125 32.2858 72.125C31.7419 72.125 31.2674 72.2146 30.8625 72.3937C30.4576 72.5673 30.0496 72.8333 29.6387 73.1917L28.7956 72.3266C29.3274 71.8618 29.8925 71.5259 30.4908 71.3187C31.0892 71.1059 31.7056 70.9995 32.3402 70.9995ZM32.4399 95.7495L33.7091 96.2451L30.3911 103.561H37.0543V104.686H28.7774V103.661L32.4399 95.7495ZM35.4406 100.277V107.5H33.972L33.9629 103.829L34.1714 100.277H35.4406ZM36.3018 120.684L36.0752 121.81H31.1436V125.455C31.5243 125.265 31.8839 125.136 32.2224 125.069C32.5668 124.996 32.9264 124.959 33.3011 124.959C33.978 124.959 34.5733 125.102 35.0871 125.388C35.6008 125.668 35.9997 126.079 36.2837 126.622C36.5678 127.165 36.7098 127.821 36.7098 128.588C36.7098 129.355 36.5345 130.03 36.184 130.612C35.8395 131.194 35.353 131.645 34.7244 131.964C34.0959 132.283 33.3495 132.443 32.4852 132.443C31.7358 132.443 31.065 132.32 30.4727 132.073C29.8865 131.827 29.3516 131.485 28.8681 131.049L29.8109 130.209C30.1917 130.567 30.5996 130.836 31.0348 131.015C31.476 131.189 31.9655 131.275 32.5034 131.275C33.3253 131.275 33.9659 131.046 34.4253 130.587C34.8846 130.122 35.1142 129.442 35.1142 128.546C35.1142 127.924 35.0145 127.434 34.8151 127.076C34.6156 126.718 34.3437 126.463 33.9992 126.312C33.6607 126.155 33.283 126.076 32.866 126.076C32.4973 126.076 32.171 126.11 31.8869 126.177C31.6029 126.239 31.2795 126.334 30.9169 126.463H29.6931V120.684H36.3018ZM33.555 145.25C34.0385 145.25 34.4827 145.308 34.8876 145.425C35.2925 145.538 35.6703 145.703 36.0208 145.922L35.4225 146.879C35.1384 146.717 34.8362 146.597 34.5159 146.518C34.2016 146.433 33.8723 146.392 33.5278 146.392C32.863 146.392 32.2979 146.599 31.8325 147.013C31.3672 147.422 31.0166 148.002 30.7809 148.752C30.5452 149.497 30.4304 150.373 30.4364 151.381L30.4546 151.927C30.4546 153.349 30.657 154.393 31.062 155.06C31.4669 155.72 32.1287 156.051 33.0473 156.051C33.839 156.051 34.4313 155.79 34.8242 155.269C35.223 154.748 35.4225 154.041 35.4225 153.144C35.4225 152.512 35.3288 152.013 35.1414 151.65C34.9601 151.28 34.7033 151.017 34.3709 150.86C34.0385 150.703 33.6517 150.625 33.2105 150.625C32.5638 150.625 31.9927 150.804 31.4971 151.162C31.0015 151.521 30.5996 151.98 30.2914 152.54L30.2551 151.297C30.6661 150.648 31.1345 150.18 31.6603 149.894C32.1861 149.608 32.7814 149.465 33.4462 149.465C34.0929 149.465 34.6821 149.597 35.214 149.86C35.7458 150.123 36.1719 150.527 36.4922 151.07C36.8186 151.607 36.9817 152.288 36.9817 153.111C36.9817 153.962 36.8065 154.693 36.4559 155.303C36.1054 155.908 35.631 156.375 35.0327 156.706C34.4343 157.031 33.7756 157.193 33.0564 157.193C32.2949 157.193 31.6512 157.061 31.1254 156.798C30.5996 156.529 30.1735 156.149 29.8472 155.656C29.5208 155.158 29.2821 154.562 29.131 153.866C28.986 153.167 28.9134 152.388 28.9134 151.532C28.9134 150.255 29.0947 149.147 29.4574 148.206C29.826 147.265 30.3549 146.537 31.0438 146.022C31.7388 145.508 32.5759 145.25 33.555 145.25Z" fill="#808080"/>
<path opacity="0.2" d="M57.146 19.7241C57.146 18.1779 58.4989 16.9244 60.1678 16.9244H181.041C182.711 16.9244 184.063 18.1779 184.063 19.7241V30.9227C184.063 32.4689 182.711 33.7223 181.041 33.7223H60.1678C58.4989 33.7223 57.146 32.4689 57.146 30.9227V19.7241Z" fill="#525252"/>
<path opacity="0.2" d="M57.146 44.9209C57.146 43.3747 58.4989 42.1212 60.1678 42.1212H226.369C228.039 42.1212 229.391 43.3747 229.391 44.9209V56.1195C229.391 57.6657 228.039 58.9192 226.369 58.9192H60.1678C58.4989 58.9192 57.146 57.6657 57.146 56.1195V44.9209Z" fill="#525252"/>
<path opacity="0.2" d="M57.146 70.1177C57.146 68.5715 58.4989 67.3181 60.1678 67.3181H94.919C96.5879 67.3181 97.9409 68.5715 97.9409 70.1177V81.3163C97.9409 82.8625 96.5879 84.1159 94.919 84.1159H60.1678C58.4989 84.1159 57.146 82.8625 57.146 81.3163V70.1177Z" fill="#525252"/>
<path opacity="0.2" d="M57.146 95.3144C57.146 93.7682 58.4989 92.5148 60.1678 92.5148H292.85C294.518 92.5148 295.871 93.7682 295.871 95.3144V106.513C295.871 108.059 294.518 109.313 292.85 109.313H60.1678C58.4989 109.313 57.146 108.059 57.146 106.513V95.3144Z" fill="#525252"/>
<path opacity="0.2" d="M57.146 121.399C57.146 119.853 58.4989 118.599 60.1678 118.599H164.421C166.09 118.599 167.443 119.853 167.443 121.399V132.598C167.443 134.144 166.09 135.397 164.421 135.397H60.1678C58.4989 135.397 57.146 134.144 57.146 132.598V121.399Z" fill="#525252"/>
<defs>
<linearGradient id="paint0_linear_121_136" x1="796.875" y1="0" x2="796.875" y2="179" gradientUnits="userSpaceOnUse">
<stop offset="0.399038" stop-color="#5D70AF"/>
<stop offset="0.841346" stop-color="#272F49"/>
</linearGradient>
</defs>
</svg>
