<svg width="103" height="65" viewBox="0 0 103 65" fill="none" xmlns="http://www.w3.org/2000/svg">
<path d="M28.7669 0.339965C29.2193 -0.113321 29.9527 -0.113321 30.4052 0.339965C30.8576 0.793258 30.8576 1.52803 30.4052 1.98129L4.03874 28.3962C1.77647 30.6626 1.77646 34.3375 4.03874 36.6039L25.0467 57.6505C27.4482 60.0561 31.3909 59.8855 33.5766 57.2815L35.379 55.1341L44.8027 31.1007C45.3602 28.6036 47.3769 26.66 49.91 26.2141L50.1335 25.9495L66.691 6.22347C69.7506 2.57827 75.2693 2.339 78.6316 5.70602L99.6486 26.7548C102.817 29.9277 102.817 35.073 99.6497 38.2464L73.2838 64.6601C72.8314 65.1133 72.0979 65.1133 71.6455 64.6601C71.1932 64.2069 71.1932 63.4721 71.6455 63.0188L98.0114 36.6045C100.274 34.3378 100.273 30.6624 98.0103 28.3962L76.9933 7.34792C74.5917 4.94299 70.65 5.11383 68.4645 7.71745L66.661 9.86602L57.2367 33.8988C56.6792 36.3962 54.6628 38.3396 52.1294 38.7854L35.3501 58.7761C32.2901 62.4215 26.7704 62.6598 23.4084 59.2918L2.40042 38.2453C-0.766783 35.0722 -0.766765 29.9278 2.40042 26.7548L28.7669 0.339965Z" fill="white"/>
</svg>
